<svg width="10" height="18" viewBox="0 0 10 18" fill="none" xmlns="http://www.w3.org/2000/svg">
<path d="M0.762698 16.448C0.567382 16.448 0.372067 16.3737 0.223545 16.2242C-0.0745151 15.9272 -0.0745151 15.4429 0.223545 15.1449L7.13692 8.22336L0.223545 1.30287C-0.0734978 1.00481 -0.0734978 0.520588 0.223545 0.223545C0.521606 -0.0745151 1.00481 -0.0745151 1.30287 0.223545L8.75438 7.68319C9.05244 7.98125 9.05244 8.46446 8.75438 8.76252L1.30287 16.2222C1.15333 16.3737 0.958014 16.448 0.762698 16.448Z" transform="translate(0.912354 0.952087)" fill="black"/>
<path d="M0.762698 16.448C0.567382 16.448 0.372067 16.3737 0.223545 16.2242C-0.0745151 15.9272 -0.0745151 15.4429 0.223545 15.1449L7.13692 8.22336L0.223545 1.30287C-0.0734978 1.00481 -0.0734978 0.520588 0.223545 0.223545C0.521606 -0.0745151 1.00481 -0.0745151 1.30287 0.223545L8.75438 7.68319C9.05244 7.98125 9.05244 8.46446 8.75438 8.76252L1.30287 16.2222C1.15333 16.3737 0.958014 16.448 0.762698 16.448Z" transform="translate(0.912354 0.952087)" stroke="white"/>
</svg>
