<svg width="18" height="18" viewBox="0 0 18 18" fill="none" xmlns="http://www.w3.org/2000/svg">
<path d="M16.6384 5.35633C16.3177 5.35633 16.0584 5.61874 16.0584 5.94245V15.6393C16.0584 15.9624 15.798 16.2257 15.4779 16.2257H1.74096C1.42061 16.2257 1.16045 15.9624 1.16045 15.6393V1.75891C1.16045 1.43604 1.42089 1.1728 1.74096 1.1728H11.2504C11.5713 1.1728 11.8306 0.910113 11.8306 0.586117C11.8306 0.262684 11.571 0 11.2504 0H1.74096C0.780758 0 0 0.788895 0 1.75891V15.6393C0 16.6093 0.780758 17.3985 1.74096 17.3985H15.4776C16.4378 17.3985 17.2189 16.6093 17.2189 15.6393V5.94245C17.2191 5.61845 16.9596 5.35633 16.6384 5.35633Z" transform="translate(0 0.601562)" fill="#1D1D1B"/>
</svg>
