<svg width="76" height="76" viewBox="0 0 76 76" fill="none" xmlns="http://www.w3.org/2000/svg">
<path d="M73.7747 25.2502C70.3681 15.6933 63.4443 8.03504 54.2786 3.68622C45.1132 -0.662849 34.8026 -1.18152 25.2469 2.22554C15.6911 5.6326 8.03361 12.5573 3.68534 21.7241C-0.662677 30.8909 -1.18129 41.2025 2.22509 50.7597C2.51183 51.5641 3.39653 51.9831 4.20034 51.6968C5.00466 51.4101 5.42408 50.5258 5.13733 49.7213C2.00791 40.9423 2.48427 31.4699 6.47855 23.0492C10.4728 14.6286 17.5069 8.26745 26.2848 5.13789C35.0628 2.00833 44.5343 2.485 52.9536 6.47953C61.3735 10.4743 67.7336 17.5093 70.863 26.2883C73.9922 35.0674 73.5158 44.5398 69.5215 52.9604C65.5272 61.3811 58.4932 67.7422 49.7152 70.8718C39.8766 74.3793 29.0837 73.3177 20.1046 67.9592C19.3708 67.5214 18.4225 67.7613 17.9851 68.4946C17.5476 69.2279 17.7872 70.1768 18.5204 70.6144C24.4992 74.1825 31.2154 76.0003 37.982 76C42.2777 76 46.5946 75.267 50.7532 73.7844C60.3092 70.3773 67.9662 63.4527 72.3145 54.2858C76.6627 45.1187 77.1813 34.8071 73.7747 25.2502Z" fill="white"/>
<path d="M61.0032 38.005C61.0032 37.1513 60.3109 36.459 59.4574 36.459H14.9598C14.1061 36.459 13.4141 37.1513 13.4141 38.005C13.4141 38.8586 14.1061 39.5509 14.9598 39.5509H59.4574C60.3109 39.5509 61.0032 38.8586 61.0032 38.005Z" fill="white"/>
<path d="M42.6853 54.1752C42.0815 54.7789 42.0815 55.7578 42.6853 56.3615C42.987 56.6632 43.3827 56.8142 43.7782 56.8142C44.1737 56.8142 44.5694 56.6632 44.8711 56.3615L62.1322 39.0982C62.7361 38.4945 62.7361 37.5156 62.1322 36.9119L44.8711 19.6486C44.2677 19.0449 43.2884 19.0449 42.6853 19.6486C42.0815 20.2523 42.0815 21.2311 42.6853 21.8348L58.8534 38.0049L42.6853 54.1752Z" fill="white"/>
</svg>
