<?xml version="1.0" standalone="no"?>
<!DOCTYPE svg PUBLIC "-//W3C//DTD SVG 20010904//EN"
 "http://www.w3.org/TR/2001/REC-SVG-20010904/DTD/svg10.dtd">
<svg version="1.0" xmlns="http://www.w3.org/2000/svg"
 width="260.000000pt" height="260.000000pt" viewBox="0 0 260.000000 260.000000"
 preserveAspectRatio="xMidYMid meet">
<metadata>
Created by potrace 1.11, written by Peter Selinger 2001-2013
</metadata>
<g transform="translate(0.000000,260.000000) scale(0.100000,-0.100000)"
fill="#000000" stroke="none">
<path d="M50 1305 l0 -635 1245 0 c685 0 1245 2 1245 5 0 2 -110 115 -245 250
l-245 245 0 385 0 385 -1000 0 -1000 0 0 -635z m1900 180 l0 -355 175 -175
c96 -96 175 -177 175 -180 0 -3 -484 -5 -1075 -5 l-1075 0 0 535 0 535 900 0
900 0 0 -355z"/>
</g>
</svg>
