<svg width="15" height="14" viewBox="0 0 15 14" fill="none" xmlns="http://www.w3.org/2000/svg">
<path d="M14.1415 0.129055C13.8914 -0.0737234 13.5266 -0.0329427 13.3261 0.219054L4.06473 11.8725L1.03254 8.05739C0.832008 7.80511 0.466379 7.76433 0.216908 7.96739C-0.0328451 8.17017 -0.0730641 8.53888 0.128313 8.79172L3.48338 13.0135C3.58491 13.1952 3.77532 13.3038 3.98064 13.3038C4.01298 13.3038 4.0456 13.2945 4.07879 13.2888C4.09736 13.2911 4.1162 13.3012 4.13561 13.3012C4.31898 13.3012 4.49758 13.2115 4.61036 13.0593L14.2306 0.953106C14.4317 0.700829 14.3915 0.331834 14.1415 0.129055Z" transform="translate(0.641357)" fill="#1D1D1B"/>
</svg>
