<svg width="49" height="77" viewBox="0 0 49 77" fill="none" xmlns="http://www.w3.org/2000/svg">
<path d="M0.167784 52.9334L0.167784 52.9351C1.18577 66.8783 11.3515 77 24.3383 77C37.6677 77 48.5122 66.1493 48.5122 52.8102C48.5122 39.9422 38.4195 29.3879 25.7388 28.6588C25.5193 26.2886 25.6857 19.8355 31.8696 10.849C32.3369 10.1715 32.2521 9.25772 31.6717 8.67686C29.1518 6.15516 27.5917 4.56392 26.4973 3.45043C25.0586 1.9824 24.4015 1.31326 23.4402 0.441099C23.1159 0.148115 22.7051 5.37327e-06 22.2958 5.33749e-06C21.8966 5.30258e-06 21.4991 0.139753 21.1782 0.419446C10.4052 9.8004 -1.56196 29.183 0.167784 52.9334ZM22.2793 4.03299C22.7467 4.49404 23.2805 5.03656 24.0673 5.83883C25.0153 6.80438 26.3109 8.12581 28.2754 10.0966C20.7723 21.6681 22.1877 29.9071 22.8065 31.0889C23.1009 31.6481 23.7062 32.0277 24.3383 32.0277C35.79 32.0277 45.1058 41.3504 45.1058 52.8102C45.1058 64.2685 35.79 73.5912 24.3383 73.5912C13.1862 73.5912 4.44906 64.7994 3.56426 52.6854L3.56426 52.6871C1.61992 25.9757 17.4857 8.6269 22.2793 4.03299Z" fill="#EDEDED"/>
</svg>
